<svg width="128" height="128" viewBox="0 0 128 128" xmlns="http://www.w3.org/2000/svg"><title>im_500_128px</title><g transform="translate(25 31)" fill="none" fill-rule="evenodd"><ellipse fill="#E1E7ED" cx="38.084" cy="62.035" rx="38.084" ry="5.965"/><path d="M10.571 48.912c0-3.394 2.747-6.156 6.123-6.156a2.284 2.284 0 0 0 2.278-2.29c0-1.265-1.02-2.29-2.278-2.29-5.888 0-10.678 4.816-10.678 10.736 0 5.92 4.79 10.737 10.678 10.737h11.508l1.876-4.58H16.694c-3.376 0-6.123-2.762-6.123-6.157" stroke="#677683" stroke-width="2.4" fill="#E1E7ED" stroke-linecap="round"/><path d="M26.913 57.994c-4.02-5.155-13.373-22.264 10.145-53.86l.662-3.34c.165-.833 1.245-1.08 1.761-.404l2.856 3.744h5.59L50.783.39c.516-.676 1.596-.43 1.761.404l.662 3.34s21.365 35.972 9.244 53.83c0 0-1.293 1.685-3.25 1.685H29.472s-1.332-.083-2.558-1.655" stroke="#677683" stroke-width="2.4" fill="#E1E7ED" stroke-linecap="round"/><path d="M36.094 12.826s3.342-4.893 6.015.297m10.829-.297s-3.343-4.893-6.016.297" stroke="#677682" stroke-width="2" stroke-linecap="round"/><path d="M46.463 15.55c-.696.147-1.346.775-1.346.775s-.576-.627-1.266-.775c-.805-.173-1.742.192-1.742 1.202 0 1.875 3.008 3.529 3.008 3.529s3.008-1.654 3.008-3.529c0-1.003-.861-1.37-1.662-1.202" fill="#677684"/><path d="M44.516 20.28s-2.12 4.399-7.22 1.253m8.423-1.253s2.12 4.399 7.218 1.253" stroke="#677684" stroke-width="2" stroke-linecap="round"/><path d="M36.094 29.727s1.354-6.716 8.975-7.052c7.62-.336 8.805 9.739 8.975 11.921" stroke="#677682" stroke-width="2.4" stroke-linecap="round"/><path d="M48.125 47.72v13.512c0 .611.512 1.107 1.143 1.107.28 0 .537-.098.736-.26.077.034.155.066.235.095.11.5.568.874 1.117.874.548 0 1.006-.375 1.117-.874l.127-.049c.21.222.51.362.844.362.63 0 1.143-.496 1.143-1.108V47.723" fill="#E1E7ED"/><path d="M48.125 47.72v13.512c0 .611.512 1.107 1.143 1.107.28 0 .537-.098.736-.26.077.034.155.066.235.095.11.5.568.874 1.117.874.548 0 1.006-.375 1.117-.874l.127-.049c.21.222.51.362.844.362.63 0 1.143-.496 1.143-1.108V47.723" stroke="#677682" stroke-width="2.4" stroke-linecap="round"/><path d="M36.094 47.72v13.57c0 .612.512 1.108 1.143 1.108.28 0 .537-.099.736-.261.076.034.155.067.235.095.11.5.568.875 1.117.875.548 0 1.006-.375 1.117-.875.043-.015.085-.032.127-.049.209.222.509.362.843.362.632 0 1.143-.496 1.143-1.108V47.768" fill="#E1E7ED"/><path d="M36.094 47.72v13.57c0 .612.512 1.108 1.143 1.108.28 0 .537-.099.736-.261.076.034.155.067.235.095.11.5.568.875 1.117.875.548 0 1.006-.375 1.117-.875.043-.015.085-.032.127-.049.209.222.509.362.843.362.632 0 1.143-.496 1.143-1.108V47.768" stroke="#677682" stroke-width="2.4" stroke-linecap="round"/><path d="M56.547 32.992c0-1.086-.802-1.974-1.782-1.974h-1.248c-.98 0-1.783.888-1.783 1.974v2.797h4.813v-2.797z" fill="#677680"/><rect fill="#677680" x="50.531" y="35.789" width="7.219" height="2.386" rx="1.193"/><rect fill="#677680" x="51.734" y="36.789" width="1.203" height="3.579" rx=".602"/><rect fill="#677680" x="55.344" y="36.789" width="1.203" height="3.579" rx=".602"/><path d="M51.734 19.088h4.33m-18.148-2.325l-4.228-1.254m3.299 3.579l-3.3.718" stroke="#677681" stroke-width="1.2" stroke-linecap="round"/><path d="M51.734 17.22l3.955-1.711" stroke="#677682" stroke-width="1.2" stroke-linecap="round"/><path d="M35.411 29l-1.752 2.435m3.638-1.61l1.387 2.66m-2.59-3.467v4" stroke="#677680" stroke-width="1.2" stroke-linecap="round"/></g></svg>