<?xml version="1.0" encoding="UTF-8"?>
<svg width="512px" height="512px" viewBox="0 0 512 512" version="1.1" xmlns="http://www.w3.org/2000/svg" xmlns:xlink="http://www.w3.org/1999/xlink">
    <!-- Generator: Sketch 52.5 (67469) - http://www.bohemiancoding.com/sketch -->
    <title>whale_512</title>
    <desc>Created with Sketch.</desc>
    <defs>
        <path d="M256,512 C397.384896,512 512,397.384896 512,256 C512,114.615104 397.384896,0 256,0 C114.615104,0 0,114.615104 0,256 C0,397.384896 114.615104,512 256,512 Z" id="path-1"></path>
    </defs>
    <g id="whale_512" stroke="none" stroke-width="1" fill="none" fill-rule="evenodd">
        <g id="circle-bg">
            <path d="M256,512 C397.384896,512 512,397.384896 512,256 C512,114.615104 397.384896,5.68434189e-14 256,5.68434189e-14 C114.615104,5.68434189e-14 -5.68434189e-14,114.615104 -5.68434189e-14,256 C-5.68434189e-14,397.384896 114.615104,512 256,512 Z" id="circle-3" fill="#81D4FA" transform="translate(256.000000, 256.000000) rotate(-360.000000) translate(-256.000000, -256.000000) "></path>
            <circle id="circle-2" fill="#4FC3F7" transform="translate(256.000000, 256.000000) rotate(-360.000000) translate(-256.000000, -256.000000) " cx="256" cy="256" r="192"></circle>
            <circle id="circle-1" fill="#03A9F4" transform="translate(256.000000, 256.000000) rotate(-360.000000) translate(-256.000000, -256.000000) " cx="256" cy="256" r="128"></circle>
        </g>
        <g id="Group">
            <mask id="mask-2" fill="white">
                <use xlink:href="#path-1"></use>
            </mask>
            <g id="mask" transform="translate(256.000000, 256.000000) rotate(-360.000000) translate(-256.000000, -256.000000) "></g>
            <g id="whale" mask="url(#mask-2)" fill-rule="nonzero">
                <g transform="translate(-21.000000, 153.000000)">
                    <path d="M510.351404,19.4032618 C510.215031,18.3725232 510.005268,17.3728911 509.705566,16.4291992 C508.716142,13.313727 504.227459,11.2323801 499.662109,10.1484375 C487.07895,7.1608414 463.805018,11.0261877 436.982751,27.3574219 C394.709961,53.0959925 304.941176,134.921875 304.941176,138.903252 C304.941176,142.88463 394.777839,54.9567088 436.982751,31.1577709 C472.978184,10.8602977 500.571637,9.16376957 506.354577,17.5439203 C507.69844,19.4913349 508.351944,22.2206665 508.618916,25.0341695 C505.476118,33.3301076 499.219376,43.843629 489.832049,57.1368455 C479.353451,71.9753904 434.504532,128.259776 377.413371,166.465547 C364.062323,175.400154 334.553451,197.227879 281.452945,213.738009 C278.48512,214.660772 275.413934,215.560727 272.24991,216.424276 C264.557181,228.060798 256.227929,238.173796 249.082335,244.170811 C229.534582,260.576467 183.315473,277.63106 179.00051,268.390394 C174.685547,259.149728 203.220944,250.642682 221.54277,226.054908 C221.859374,225.630029 222.172358,225.205623 222.481724,224.781691 C211.049808,225.440639 199.227051,225.193123 187.298803,223.670413 C141.161672,217.780743 118.390597,202.171439 97.8359735,183.650387 C69.61125,158.218076 70.279359,133.578169 56.4637465,123.559826 C43.0276449,113.816684 29.0714127,117.368615 16.4366851,107.590015 C2.68506806,96.9470032 -2.02673785,77.5824743 0.773051132,74.9710819 C3.57284011,72.3596894 9.92837508,81.9018113 19.7553503,83.8559834 C35.098218,86.9070345 51.349043,81.1939647 63.0181685,90.3232528 C70.0816853,79.350346 80.0412992,79.350346 88.7933677,70.6319546 C95.2010698,64.2489089 95.6892047,51.2628234 100.265004,51.2628234 C104.840802,51.2628234 111.855611,69.0317558 107.871151,83.0339977 C102.27856,102.687556 74.7879019,111.485473 77.5541549,126.507192 C78.252224,130.297951 83.1122253,139.801265 95.3794626,146.37154 C109.411012,153.886772 132.991001,157.304963 161.67079,148.099735 C217.223969,130.269072 234.250114,118.443816 272.217507,93.3272285 C299.510098,75.2723472 334.394621,49.9423995 402.197396,22.0643815 C437.861063,7.40078753 452.238209,3.60376068 479.187168,0.377029558 C491.477701,-1.09457623 508.948685,1.59004473 510.736612,11.1185362 C511.187576,13.5218809 511.05962,16.2683549 510.351404,19.4032618 Z M307.695923,112.544774 C304.582838,114.951244 300.015073,122.348507 301.15974,124.03159 C302.304407,125.714673 306.875413,121.985994 309.988497,119.579524 C313.101582,117.173054 317.267791,114.022856 316.123124,112.339773 C314.978457,110.656691 310.809007,110.138303 307.695923,112.544774 Z" id="Combined-Shape" fill="#FFFFFF"></path>
                    <path d="M298.226196,207.809326 C297.215228,211.803465 296.159087,213.592681 294.687706,217.752931 C286.086657,242.071926 268.997297,253.097396 271.192954,262.338062 C273.388611,271.578728 313.183129,241.639302 323.129948,225.233645 C327.346878,218.278506 332.400955,208.030005 336.374641,195.952161 C337.117111,193.695456 337.555436,192.537117 338.209961,190.162231 C323.967285,197.622437 309.322266,203.809326 298.226196,207.809326 Z" id="Path-25" fill="#F0F1F2"></path>
                    <path d="M60.163798,126.929991 C59.0431984,125.67373 57.823637,124.545946 56.4637465,123.559826 C43.0276449,113.816684 29.0714127,117.368615 16.4366851,107.590015 C8.31752884,101.306225 3.34955553,91.9822058 1.21823942,84.8609554 C6.84304272,93.1944986 11.4828613,98.580365 15.1376953,101.018555 C21.3276367,105.147949 30.4707031,109.248047 35.6245117,110.513184 C40.7783203,111.77832 47.3881836,114.161133 52.5898438,117.797363 C55.0756059,119.53504 57.6002564,122.579248 60.1637952,126.929988 Z" id="Combined-Shape" fill="#F0F1F2"></path>
                    <path d="M304.326056,138.906661 C304.326056,143.044477 394.045682,55.0851015 436.19561,31.3215969 C472.144149,11.0543437 499.701655,9.36034143 505.47706,17.7280153 C506.65224,19.4306694 507.454294,21.8704288 508,24.5021321 C504.954441,32.8927731 498.619156,43.6091271 488.976058,57.2619924 C478.511111,72.0784448 433.72062,128.279031 376.703837,166.427919 C363.370182,175.349224 333.899753,197.14445 280.868425,213.63 C277.904466,214.551389 274.837282,215.450003 271.677379,216.312267 C270.954467,217.405587 254.386684,220.187244 221.97403,224.657238 C210.557008,225.315205 198.749654,225.068058 186.836945,223.547616 C141.140658,217.715309 118.395932,202.337565 98,184.045013 C113.127929,191.65148 139.02446,201.347396 157.346979,203.371855 C190.63739,207.050118 213.94574,198.951876 238.366702,186.802207 C278.647699,166.762014 304.326056,138.832173 304.326056,138.906661 Z" id="Path" fill="#E1E3E6" opacity="0.5"></path>
                    <path d="M241.210654,178.109036 C239.774991,193.072215 232.974299,208.739943 220.808579,225.112222 C202.56,249.67064 174.138682,258.167529 178.436395,267.397162 C182.734108,276.626795 228.768441,259.592564 248.238046,243.206495 C267.707651,226.820426 296,179.6683 296,154.761438 C296,149.553116 295.718177,140.429682 292.12445,140.020136 C286.882197,139.422721 269.910931,152.119021 241.210654,178.109036 Z" id="Path-25" fill="#FFFFFF"></path>
                    <path d="M129,155 C131.306952,154.505165 131.656785,152.4628 130.049498,148.872904 C129.334866,147.276764 130.026759,146.652409 131.310753,147.187687 C132.951946,147.871877 135.943279,149.687554 139.562524,151.076221 C142.664386,152.266374 153.440381,151.590014 150.495509,152.468091 C148.664083,153.014169 141.498914,153.858139 129,155 Z" id="Path-27" fill="#FFFFFF"></path>
                </g>
            </g>
            <g id="Group-2" opacity="0.300000012" mask="url(#mask-2)" fill="#979797" fill-rule="nonzero">
                <g transform="translate(377.000000, 254.500000) rotate(2.000000) translate(-377.000000, -254.500000) translate(274.000000, 169.000000)">
                    <path d="M205.486548,0.386940561 C191.902514,29.7926519 168.855009,62.7377609 139.501647,93.9265656 C108.782046,126.567038 76.7897722,152.201714 43.5236783,170.826653 C62.7609641,157.412226 77.1765739,146.980263 86.7705078,139.530762 C95.031187,133.116507 102.916191,126.514352 111.010132,119.166145 C120.127641,110.888677 128.917594,101.781602 138.045228,92.5558562 C177.884766,52.2880859 206.121779,-0.988159901 205.486548,0.386940561 Z" id="Path-28"></path>
                    <path d="M183.923235,0.0711260644 C155.883592,48.2191638 128.448217,87.2107244 106.011117,108.134658 C83.4133051,129.208465 57.782992,148.775865 29.1210199,166.837245 C57.2566366,148.300059 82.4319919,128.244971 104.647086,106.671983 C137.969727,74.3125 184.171433,-0.355065494 183.923235,0.0711260644 Z" id="Path-29"></path>
                    <path d="M152.600604,11.8828456 C127.326843,57.0965439 101.311606,95.1168022 80.0682207,114.794177 C58.6501063,134.6334 37.1373368,151.238409 15.5290924,164.608196 C36.6302827,150.826121 57.690293,133.732361 78.709123,113.326917 C110.237368,82.71875 152.862421,11.414466 152.600604,11.8828456 Z" id="Path-30"></path>
                    <path d="M110.232008,40.859394 C94.2799821,69.18557 75.4276695,97.3728109 60.1607069,113.822836 C44.4217685,130.781412 24.445407,146.944027 0.23320242,162.313985 C26.8127602,142.83155 46.2999466,126.214328 58.6947618,112.46232 C77.2869846,91.8343078 110.72357,39.9865224 110.232008,40.859394 Z" id="Path-31"></path>
                </g>
            </g>
            <path d="M268.980744,220.700716 C267.153127,218.9276 264.414862,213.316659 260.374369,212.559102 C257.845076,212.084882 252.51843,213.410017 249.023578,211.887264 C245.528725,210.364512 243.511982,204.909838 246.33318,200.349673 C249.154377,195.789509 256.092068,196.459639 259.082161,198.958571 C262.072254,201.457503 267.460509,210.280131 269.975494,220.249495 C270.11159,220.788974 269.667193,221.366696 268.980744,220.700716 Z M285.685149,193.569879 C285.685149,193.569879 280.36984,196.827225 277.995005,199.516447 C275.620169,202.205669 272.555094,207.442938 270.746996,213.7563 C270.619495,214.201497 269.936649,213.983084 270.004763,213.531834 L272.705786,189.445577 C273.839409,183.25858 279.053277,178.408526 284.335371,180.489471 C285.831316,181.078314 286.98846,182.045805 287.748682,183.2298 C289.653832,186.196978 289.690652,190.395387 285.685149,193.569879 Z M271.313073,176.663338 C269.438675,181.660874 266.319445,181.962298 266.319445,188.371151 C266.319445,191.951289 267.710309,198.805688 268.637659,203.591913 C268.95664,205.238233 265.840355,201.551216 264.5,198.805688 C263.159645,196.060161 258.023662,184.78308 257.236055,178.461362 C256.448448,172.139643 257.434443,165.865146 263.227345,165.073404 C264.86769,164.848709 266.407855,165.148627 267.710309,165.853035 C270.974334,167.618344 273.18747,171.665802 271.313073,176.663338 Z M278.89618,212.145095 C277.686878,212.363578 276.335657,213.287409 274.842516,214.916586 C274.823749,214.923101 273.62787,215.289491 274.117748,214.433194 L276.505975,209.848401 C277.016091,208.168558 279.522036,207.359201 280.558749,208.603801 C281.595461,209.848401 280.710133,211.81737 278.89618,212.145095 Z M256.000588,187.876817 C257.006957,188.677572 257.672601,190.510214 257.997519,193.374741 C258.005203,193.39532 258.03371,194.330122 257.363549,193.87543 C256.90184,193.05284 256.32143,192.512914 255.62232,192.25565 C254.582834,191.873134 253.775809,192.289868 252.46986,191.866406 C250.764966,191.313582 250.601059,189.451816 251.679171,188.050841 C252.730214,186.685041 254.491035,186.675684 256.000588,187.876817 Z" id="Shape" fill="#81D4FA" mask="url(#mask-2)"></path>
        </g>
    </g>
</svg>