<?xml version="1.0" encoding="utf-8"?>
<!-- Generator: Adobe Illustrator 22.1.0, SVG Export Plug-In . SVG Version: 6.00 Build 0)  -->
<svg version="1.1" id="Layer_1" xmlns="http://www.w3.org/2000/svg" xmlns:xlink="http://www.w3.org/1999/xlink" x="0px" y="0px"
	 viewBox="0 0 88.1 92.3" style="enable-background:new 0 0 88.1 92.3;" xml:space="preserve">
<style type="text/css">
	.st0{fill:none;}
	.st1{fill:#E1E7ED;}
	.st2{fill:#E1E7ED;stroke:#677685;stroke-width:2.4;}
	.st3{fill:#AAB7C4;}
	.st4{fill:#677685;fill-opacity:0.4;}
</style>
<g>
	<rect x="-19.9" y="-19.8" class="st0" width="128" height="128"/>
	<g transform="translate(26 20)">
		<ellipse class="st1" cx="16.2" cy="66.5" rx="27.2" ry="3.6"/>
		<path class="st2" d="M3.7-8C1.4-2.5-25.4,48.3-18.5,42.2s47.7,17,52.3,14.6c4.6-2.4,17.9-64.6,14-62.4S6-13.5,3.7-8z"/>
		<path class="st3" d="M-3.2,19.3l1.2-1.9L10,7.2l2.4,0.3L7.3,18.8l1.9,0.4l-1.1,2.5l-1.9-0.4L4,25.5l-2.5-0.6l2.2-4.2L-3.2,19.3z
			 M0.6,17.4l4.3,0.8l3.8-7.7L0.6,17.4z M22.2,19.5c-2.1,6.5-4.7,9.7-9,8.6c-4.1-1-4-4.7-1.3-10.8c2.6-6.2,5.1-9.5,8.6-8.9
			C24.1,9,24.2,12.9,22.2,19.5z M14.3,17.8c-1.7,4.2-2.5,6.9,0,7.5c2.6,0.6,3.8-2.1,5.3-6.4c1.5-4.3,2.1-7.3-0.1-7.7
			C17.3,10.9,15.9,13.6,14.3,17.8z M22.4,25l0.7-2.3l10.1-11.6l2.7,0.5l-2.7,13.1l2.1,0.5l-0.6,2.9l-2.1-0.6l-1.2,5l-2.7-0.8l1.3-5
			L22.4,25z M25.9,22.9l4.7,1.2l2.1-9L25.9,22.9z"/>
		<path class="st4" d="M23.1-18.8c1.1-0.6,10.9-0.3,11,1.6c0.1,1.9-2.3,15.2-3.7,16.4C29,0.3,18.6-2.4,18-4.1
			C17.3-5.7,22-18.2,23.1-18.8z"/>
	</g>
</g>
</svg>
